REM DIRINDEX 1\2\4,1\2\5,1\3\6,1\3\7,1\3\8
REM DIRNAME cjc094,folder01,folder02,folder03,folder04,folder05,folder06,folder07
TITLE ""
FILE "LV5_096_WORDS.mp3" MP3
  TRACK 01 AUDIO
    TITLE "0:"
    INDEX 01 00:00:00
  TRACK 02 AUDIO
    TITLE "6:cjc094_3292"
    INDEX 01 00:00:05
  TRACK 03 AUDIO
    TITLE "0:"
    INDEX 01 00:03:02
  TRACK 04 AUDIO
    TITLE "7:cjc094_3293"
    INDEX 01 00:03:53
  TRACK 05 AUDIO
    TITLE "0:"
    INDEX 01 00:04:60
  TRACK 06 AUDIO
    TITLE "8:cjc094_3294"
    INDEX 01 00:04:74
  TRACK 07 AUDIO
    TITLE "0:"
    INDEX 01 00:08:09
  TRACK 08 AUDIO
    TITLE "7:cjc094_3295"
    INDEX 01 00:08:58
  TRACK 09 AUDIO
    TITLE "0:"
    INDEX 01 00:09:73
  TRACK 10 AUDIO
    TITLE "8:cjc094_3296"
    INDEX 01 00:10:16
  TRACK 11 AUDIO
    TITLE "0:"
    INDEX 01 00:11:01
  TRACK 12 AUDIO
    TITLE "7:cjc094_3297"
    INDEX 01 00:11:54
  TRACK 13 AUDIO
    TITLE "0:"
    INDEX 01 00:12:67
  TRACK 14 AUDIO
    TITLE "8:cjc094_3298"
    INDEX 01 00:13:12
  TRACK 15 AUDIO
    TITLE "0:"
    INDEX 01 00:14:11
  TRACK 16 AUDIO
    TITLE "7:cjc094_3299"
    INDEX 01 00:14:56
  TRACK 17 AUDIO
    TITLE "0:"
    INDEX 01 00:15:70
  TRACK 18 AUDIO
    TITLE "8:cjc094_3300"
    INDEX 01 00:16:14
  TRACK 19 AUDIO
    TITLE "0:"
    INDEX 01 00:17:25
  TRACK 20 AUDIO
    TITLE "7:cjc094_3301"
    INDEX 01 00:18:01
  TRACK 21 AUDIO
    TITLE "0:"
    INDEX 01 00:19:16
  TRACK 22 AUDIO
    TITLE "8:cjc094_3302"
    INDEX 01 00:19:24
  TRACK 23 AUDIO
    TITLE "0:"
    INDEX 01 00:20:49
  TRACK 24 AUDIO
    TITLE "7:cjc094_3303"
    INDEX 01 00:21:17
  TRACK 25 AUDIO
    TITLE "0:"
    INDEX 01 00:22:19
  TRACK 26 AUDIO
    TITLE "8:cjc094_3304"
    INDEX 01 00:22:36
  TRACK 27 AUDIO
    TITLE "0:"
    INDEX 01 00:23:34
  TRACK 28 AUDIO
    TITLE "7:cjc094_3305"
    INDEX 01 00:24:08
  TRACK 29 AUDIO
    TITLE "0:"
    INDEX 01 00:25:13
  TRACK 30 AUDIO
    TITLE "8:cjc094_3306"
    INDEX 01 00:25:31
  TRACK 31 AUDIO
    TITLE "0:"
    INDEX 01 00:26:44
  TRACK 32 AUDIO
    TITLE "7:cjc094_3307"
    INDEX 01 00:27:20
  TRACK 33 AUDIO
    TITLE "0:"
    INDEX 01 00:28:19
  TRACK 34 AUDIO
    TITLE "8:cjc094_3308"
    INDEX 01 00:28:37
  TRACK 35 AUDIO
    TITLE "0:"
    INDEX 01 00:29:52
  TRACK 36 AUDIO
    TITLE "7:cjc094_3309"
    INDEX 01 00:30:26
  TRACK 37 AUDIO
    TITLE "0:"
    INDEX 01 00:31:29
  TRACK 38 AUDIO
    TITLE "8:cjc094_3310"
    INDEX 01 00:31:51
  TRACK 39 AUDIO
    TITLE "0:"
    INDEX 01 00:33:66
  TRACK 40 AUDIO
    TITLE "7:cjc094_3311"
    INDEX 01 00:34:43
  TRACK 41 AUDIO
    TITLE "0:"
    INDEX 01 00:35:51
  TRACK 42 AUDIO
    TITLE "8:cjc094_3312"
    INDEX 01 00:35:70
  TRACK 43 AUDIO
    TITLE "0:"
    INDEX 01 00:39:74
  TRACK 44 AUDIO
    TITLE "7:cjc094_3313"
    INDEX 01 00:40:48
  TRACK 45 AUDIO
    TITLE "0:"
    INDEX 01 00:41:57
  TRACK 46 AUDIO
    TITLE "8:cjc094_3314"
    INDEX 01 00:41:73
  TRACK 47 AUDIO
    TITLE "0:"
    INDEX 01 00:46:07
  TRACK 48 AUDIO
    TITLE "7:cjc094_3315"
    INDEX 01 00:46:56
  TRACK 49 AUDIO
    TITLE "0:"
    INDEX 01 00:47:64
  TRACK 50 AUDIO
    TITLE "8:cjc094_3316"
    INDEX 01 00:48:06
  TRACK 51 AUDIO
    TITLE "0:"
    INDEX 01 00:49:51
  TRACK 52 AUDIO
    TITLE "7:cjc094_3317"
    INDEX 01 00:50:21
  TRACK 53 AUDIO
    TITLE "0:"
    INDEX 01 00:51:20
  TRACK 54 AUDIO
    TITLE "8:cjc094_3318"
    INDEX 01 00:51:42
  TRACK 55 AUDIO
    TITLE "0:"
    INDEX 01 00:53:09
  TRACK 56 AUDIO
    TITLE "7:cjc094_3319"
    INDEX 01 00:53:57
  TRACK 57 AUDIO
    TITLE "0:"
    INDEX 01 00:54:56
  TRACK 58 AUDIO
    TITLE "8:cjc094_3320"
    INDEX 01 00:54:74
  TRACK 59 AUDIO
    TITLE "0:"
    INDEX 01 00:56:10
